<svg width="63" height="63" viewBox="0 0 63 63" fill="none" xmlns="http://www.w3.org/2000/svg">
<path d="M40.0364 8.1034C32.9787 10.3639 28.3485 15.9207 26.146 24.774C22.8422 38.0538 18.7478 39.7472 5.41797 35.0238C10.2053 43.8662 19.9083 47.4115 26.146 47.4115C32.3837 47.4115 48.539 38.7267 46.6879 22.2184C45.0811 17.4104 42.864 12.7054 40.0364 8.1034Z" fill="#7BC0FF"/>
<mask id="mask0_4_567" style="mask-type:luminance" maskUnits="userSpaceOnUse" x="5" y="8" width="42" height="40">
<path d="M40.0364 8.1034C32.9787 10.3639 28.3485 15.9207 26.146 24.774C22.8422 38.0538 18.7478 39.7472 5.41797 35.0238C10.2053 43.8662 19.9083 47.4115 26.146 47.4115C32.3837 47.4115 48.539 38.7267 46.6879 22.2184C45.0811 17.4104 42.864 12.7054 40.0364 8.1034Z" fill="#7BC0FF"/>
</mask>
<g mask="url(#mask0_4_567)">
<path d="M69.2999 -6.3H-6.30005V69.3H69.2999V-6.3Z" fill="#7BC0FF"/>
</g>
<path d="M44.6643 40.226L62.0867 57.6769C63.3044 58.8947 63.3044 60.869 62.0867 62.0867C60.869 63.3044 58.8947 63.3044 57.6769 62.0867L40.2581 44.6393C36.0314 47.9305 30.7173 49.8908 24.9454 49.8908C11.1684 49.8908 0 38.7224 0 24.9454C0 11.1684 11.1684 0 24.9454 0C38.7224 0 49.8908 11.1684 49.8908 24.9454C49.8908 30.7027 47.9404 36.0044 44.6643 40.226ZM24.9454 43.6544C35.2781 43.6544 43.6544 35.2781 43.6544 24.9454C43.6544 14.6127 35.2781 6.23635 24.9454 6.23635C14.6127 6.23635 6.23635 14.6127 6.23635 24.9454C6.23635 35.2781 14.6127 43.6544 24.9454 43.6544Z" fill="#63B4FD"/>
<mask id="mask1_4_567" style="mask-type:luminance" maskUnits="userSpaceOnUse" x="0" y="0" width="63" height="63">
<path d="M44.6643 40.226L62.0867 57.6769C63.3044 58.8947 63.3044 60.869 62.0867 62.0867C60.869 63.3044 58.8947 63.3044 57.6769 62.0867L40.2581 44.6393C36.0314 47.9305 30.7173 49.8908 24.9454 49.8908C11.1684 49.8908 0 38.7224 0 24.9454C0 11.1684 11.1684 0 24.9454 0C38.7224 0 49.8908 11.1684 49.8908 24.9454C49.8908 30.7027 47.9404 36.0044 44.6643 40.226ZM24.9454 43.6544C35.2781 43.6544 43.6544 35.2781 43.6544 24.9454C43.6544 14.6127 35.2781 6.23635 24.9454 6.23635C14.6127 6.23635 6.23635 14.6127 6.23635 24.9454C6.23635 35.2781 14.6127 43.6544 24.9454 43.6544Z" fill="#00499B"/>
</mask>
<g mask="url(#mask1_4_567)">
<path d="M69.2999 -6.3H-6.30005V69.3H69.2999V-6.3Z" fill="#00499B"/>
</g>
</svg>
