<svg width="144" height="144" viewBox="0 0 144 144" fill="none" xmlns="http://www.w3.org/2000/svg">
<circle cx="72" cy="72" r="69.5" stroke="white" stroke-width="5"/>
<path d="M56.3749 115C54.8118 115.003 53.2635 114.695 51.8191 114.094C50.3748 113.493 49.0628 112.611 47.9588 111.498L17.4772 80.8428C15.2506 78.5994 14 75.5591 14 72.3894C14 69.2196 15.2506 66.1794 17.4772 63.936C19.7115 61.6954 22.738 60.4372 25.8932 60.4372C29.0485 60.4372 32.075 61.6954 34.3093 63.936L56.3749 86.1275L60.3266 82.1532C60.7235 81.754 61.1947 81.4374 61.7133 81.2213C62.232 81.0053 62.7878 80.8941 63.3491 80.8941C63.9105 80.8941 64.4663 81.0053 64.9849 81.2213C65.5035 81.4374 65.9747 81.754 66.3717 82.1532C66.7686 82.5524 67.0834 83.0263 67.2983 83.5479C67.5131 84.0694 67.6236 84.6284 67.6236 85.193C67.6236 85.7575 67.5131 86.3165 67.2983 86.8381C67.0834 87.3597 66.7686 87.8336 66.3717 88.2327L59.4081 95.236C59.0113 95.6355 58.5402 95.9524 58.0215 96.1686C57.5029 96.3849 56.947 96.4962 56.3856 96.4962C55.8241 96.4962 55.2682 96.3849 54.7496 96.1686C54.231 95.9524 53.7598 95.6355 53.363 95.236L28.2643 69.9941C27.6319 69.3792 26.7846 69.0388 25.905 69.0462C25.0253 69.0537 24.1838 69.4084 23.5618 70.0339C22.9398 70.6595 22.5871 71.5058 22.5797 72.3904C22.5723 73.2751 22.9108 74.1272 23.5222 74.7632L54.0038 105.419C54.6381 106.041 55.489 106.389 56.3749 106.389C57.2608 106.389 58.1116 106.041 58.7459 105.419L120.692 43.1195C121.248 42.4739 121.54 41.6402 121.509 40.7866C121.477 39.933 121.125 39.1232 120.523 38.5206C119.921 37.918 119.114 37.5675 118.266 37.5399C117.417 37.5123 116.589 37.8096 115.95 38.3718L81.9863 72.529C81.5894 72.9282 81.1181 73.2449 80.5995 73.4609C80.0809 73.6769 79.5251 73.7882 78.9638 73.7882C78.4024 73.7882 77.8466 73.6769 77.328 73.4609C76.8094 73.2449 76.3381 72.9282 75.9412 72.529C75.5443 72.1298 75.2294 71.6559 75.0146 71.1344C74.7998 70.6128 74.6892 70.0538 74.6892 69.4893C74.6892 68.9247 74.7998 68.3657 75.0146 67.8441C75.2294 67.3226 75.5443 66.8487 75.9412 66.4495L109.883 32.3138C112.13 30.1551 115.127 28.9661 118.234 29.0007C121.341 29.0354 124.311 30.2911 126.51 32.4993C128.708 34.7076 129.961 37.6931 129.999 40.8178C130.038 43.9425 128.859 46.9583 126.715 49.2205L64.7696 111.52C63.6671 112.627 62.3579 113.505 60.9173 114.102C59.4767 114.699 57.9331 115.004 56.3749 115Z" fill="white"/>
</svg>
